{
  "accessors": [
    {
      "bufferView": 2,
      "componentType": 5126,
      "count": 65532,
      "max": [
        0.11203178018331528,
        0.09538707137107849,
        0.10931289196014404
      ],
      "min": [
        -0.11921550333499908,
        0.009616456925868988,
        -0.12070092558860779
      ],
      "type": "VEC3"
    },
    {
      "bufferView": 2,
      "byteOffset": 786384,
      "componentType": 5126,
      "count": 65532,
      "max": [
        0.9999800324440002,
        0.9999983906745911,
        0.9999868273735046
      ],
      "min": [
        -0.999991774559021,
        -0.9983912110328674,
        -0.9999755024909973
      ],
      "type": "VEC3"
    },
    {
      "bufferView": 1,
      "componentType": 5126,
      "count": 65532,
      "max": [
        0.997802734375,
        0.9978333711624146
      ],
      "min": [
        0.002192184329032898,
        0.45792120695114136
      ],
      "type": "VEC2"
    },
    {
      "bufferView": 1,
      "byteOffset": 524256,
      "componentType": 5126,
      "count": 65532,
      "max": [
        0.997802734375,
        0.9978333711624146
      ],
      "min": [
        0.002192184329032898,
        0.45792120695114136
      ],
      "type": "VEC2"
    },
    {
      "bufferView": 1,
      "byteOffset": 1048512,
      "componentType": 5126,
      "count": 65532,
      "max": [
        0.997802734375,
        0.9978333711624146
      ],
      "min": [
        0.002192184329032898,
        0.45792120695114136
      ],
      "type": "VEC2"
    },
    {
      "bufferView": 1,
      "byteOffset": 1572768,
      "componentType": 5126,
      "count": 65532,
      "max": [
        0.997802734375,
        0.9978333711624146
      ],
      "min": [
        0.002192184329032898,
        0.45792120695114136
      ],
      "type": "VEC2"
    },
    {
      "bufferView": 1,
      "byteOffset": 2097024,
      "componentType": 5126,
      "count": 65532,
      "max": [
        0.997802734375,
        0.9978333711624146
      ],
      "min": [
        0.002192184329032898,
        0.45792120695114136
      ],
      "type": "VEC2"
    },
    {
      "bufferView": 1,
      "byteOffset": 2621280,
      "componentType": 5126,
      "count": 65532,
      "max": [
        0.997802734375,
        0.9978333711624146
      ],
      "min": [
        0.002192184329032898,
        0.45792120695114136
      ],
      "type": "VEC2"
    },
    {
      "bufferView": 1,
      "byteOffset": 3145536,
      "componentType": 5126,
      "count": 65532,
      "max": [
        0.997802734375,
        0.9978333711624146
      ],
      "min": [
        0.002192184329032898,
        0.45792120695114136
      ],
      "type": "VEC2"
    },
    {
      "bufferView": 1,
      "byteOffset": 3669792,
      "componentType": 5126,
      "count": 65532,
      "max": [
        0.997802734375,
        0.9978333711624146
      ],
      "min": [
        0.002192184329032898,
        0.45792120695114136
      ],
      "type": "VEC2"
    },
    {
      "bufferView": 1,
      "byteOffset": 4194048,
      "componentType": 5126,
      "count": 65532,
      "max": [
        0.997802734375,
        0.9978333711624146
      ],
      "min": [
        0.002192184329032898,
        0.45792120695114136
      ],
      "type": "VEC2"
    },
    {
      "bufferView": 1,
      "byteOffset": 4718304,
      "componentType": 5126,
      "count": 65532,
      "max": [
        0.997802734375,
        0.9978333711624146
      ],
      "min": [
        0.002192184329032898,
        0.45792120695114136
      ],
      "type": "VEC2"
    },
    {
      "bufferView": 0,
      "componentType": 5125,
      "count": 329514,
      "type": "SCALAR"
    },
    {
      "bufferView": 2,
      "byteOffset": 1572768,
      "componentType": 5126,
      "count": 60849,
      "max": [
        0.11159228533506393,
        0.0955815464258194,
        0.1092166006565094
      ],
      "min": [
        -0.1188410073518753,
        0.009616456925868988,
        -0.12120461463928223
      ],
      "type": "VEC3"
    },
    {
      "bufferView": 2,
      "byteOffset": 2302956,
      "componentType": 5126,
      "count": 60849,
      "max": [
        0.9999425411224365,
        0.999981164932251,
        0.9999983310699463
      ],
      "min": [
        -0.9999898076057434,
        -0.8639373779296875,
        -0.9999659657478333
      ],
      "type": "VEC3"
    },
    {
      "bufferView": 1,
      "byteOffset": 5242560,
      "componentType": 5126,
      "count": 60849,
      "max": [
        0.9968039989471436,
        0.9979192018508911
      ],
      "min": [
        0.002099275588989258,
        0.4775005578994751
      ],
      "type": "VEC2"
    },
    {
      "bufferView": 1,
      "byteOffset": 5729352,
      "componentType": 5126,
      "count": 60849,
      "max": [
        0.9968039989471436,
        0.9979192018508911
      ],
      "min": [
        0.002099275588989258,
        0.4775005578994751
      ],
      "type": "VEC2"
    },
    {
      "bufferView": 1,
      "byteOffset": 6216144,
      "componentType": 5126,
      "count": 60849,
      "max": [
        0.9968039989471436,
        0.9979192018508911
      ],
      "min": [
        0.002099275588989258,
        0.4775005578994751
      ],
      "type": "VEC2"
    },
    {
      "bufferView": 1,
      "byteOffset": 6702936,
      "componentType": 5126,
      "count": 60849,
      "max": [
        0.9968039989471436,
        0.9979192018508911
      ],
      "min": [
        0.002099275588989258,
        0.4775005578994751
      ],
      "type": "VEC2"
    },
    {
      "bufferView": 1,
      "byteOffset": 7189728,
      "componentType": 5126,
      "count": 60849,
      "max": [
        0.9968039989471436,
        0.9979192018508911
      ],
      "min": [
        0.002099275588989258,
        0.4775005578994751
      ],
      "type": "VEC2"
    },
    {
      "bufferView": 1,
      "byteOffset": 7676520,
      "componentType": 5126,
      "count": 60849,
      "max": [
        0.9968039989471436,
        0.9979192018508911
      ],
      "min": [
        0.002099275588989258,
        0.4775005578994751
      ],
      "type": "VEC2"
    },
    {
      "bufferView": 1,
      "byteOffset": 8163312,
      "componentType": 5126,
      "count": 60849,
      "max": [
        0.9968039989471436,
        0.9979192018508911
      ],
      "min": [
        0.002099275588989258,
        0.4775005578994751
      ],
      "type": "VEC2"
    },
    {
      "bufferView": 1,
      "byteOffset": 8650104,
      "componentType": 5126,
      "count": 60849,
      "max": [
        0.9968039989471436,
        0.9979192018508911
      ],
      "min": [
        0.002099275588989258,
        0.4775005578994751
      ],
      "type": "VEC2"
    },
    {
      "bufferView": 1,
      "byteOffset": 9136896,
      "componentType": 5126,
      "count": 60849,
      "max": [
        0.9968039989471436,
        0.9979192018508911
      ],
      "min": [
        0.002099275588989258,
        0.4775005578994751
      ],
      "type": "VEC2"
    },
    {
      "bufferView": 1,
      "byteOffset": 9623688,
      "componentType": 5126,
      "count": 60849,
      "max": [
        0.9968039989471436,
        0.9979192018508911
      ],
      "min": [
        0.002099275588989258,
        0.4775005578994751
      ],
      "type": "VEC2"
    },
    {
      "bufferView": 0,
      "byteOffset": 1318056,
      "componentType": 5125,
      "count": 333939,
      "type": "SCALAR"
    }
  ],
  "asset": {
    "extras": {
      "author": "JFN (https://sketchfab.com/db4)",
      "license": "CC-BY-4.0 (http://creativecommons.org/licenses/by/4.0/)",
      "source": "https://sketchfab.com/3d-models/steak-sandwich-scaniverse-lidar-8a336094472e49819b4c1eb522191130",
      "title": "Steak Sandwich (Scaniverse LIDAR)"
    },
    "generator": "Sketchfab-15.1.0",
    "version": "2.0"
  },
  "bufferViews": [
    {
      "buffer": 0,
      "byteLength": 2653812,
      "name": "floatBufferViews",
      "target": 34963
    },
    {
      "buffer": 0,
      "byteLength": 10110480,
      "byteOffset": 2653812,
      "byteStride": 8,
      "name": "floatBufferViews",
      "target": 34962
    },
    {
      "buffer": 0,
      "byteLength": 3033144,
      "byteOffset": 12764292,
      "byteStride": 12,
      "name": "floatBufferViews",
      "target": 34962
    }
  ],
  "buffers": [
    {
      "byteLength": 15797436,
      "uri": "scene.bin"
    }
  ],
  "extensionsUsed": [
    "KHR_materials_unlit"
  ],
  "images": [
    {
      "uri": "textures/main_baseColor.jpeg"
    }
  ],
  "materials": [
    {
      "doubleSided": true,
      "extensions": {
        "KHR_materials_unlit": {}
      },
      "name": "main",
      "pbrMetallicRoughness": {
        "baseColorTexture": {
          "index": 0
        },
        "metallicFactor": 0.0
      }
    }
  ],
  "meshes": [
    {
      "name": "mesh_main_0",
      "primitives": [
        {
          "attributes": {
            "NORMAL": 1,
            "POSITION": 0,
            "TEXCOORD_0": 2,
            "TEXCOORD_1": 3,
            "TEXCOORD_2": 4,
            "TEXCOORD_3": 5,
            "TEXCOORD_4": 6,
            "TEXCOORD_5": 7,
            "TEXCOORD_6": 8,
            "TEXCOORD_7": 9,
            "TEXCOORD_8": 10,
            "TEXCOORD_9": 11
          },
          "indices": 12,
          "material": 0,
          "mode": 4
        }
      ]
    },
    {
      "name": "mesh_main_0",
      "primitives": [
        {
          "attributes": {
            "NORMAL": 14,
            "POSITION": 13,
            "TEXCOORD_0": 15,
            "TEXCOORD_1": 16,
            "TEXCOORD_2": 17,
            "TEXCOORD_3": 18,
            "TEXCOORD_4": 19,
            "TEXCOORD_5": 20,
            "TEXCOORD_6": 21,
            "TEXCOORD_7": 22,
            "TEXCOORD_8": 23,
            "TEXCOORD_9": 24
          },
          "indices": 25,
          "material": 0,
          "mode": 4
        }
      ]
    }
  ],
  "nodes": [
    {
      "children": [
        1
      ],
      "matrix": [
        1.0,
        0.0,
        0.0,
        0.0,
        0.0,
        2.220446049250313e-16,
        -1.0,
        0.0,
        0.0,
        1.0,
        2.220446049250313e-16,
        0.0,
        0.0,
        0.0,
        0.0,
        1.0
      ],
      "name": "Sketchfab_model"
    },
    {
      "children": [
        2
      ],
      "matrix": [
        1.0,
        0.0,
        0.0,
        0.0,
        0.0,
        0.0,
        1.0,
        0.0,
        0.0,
        -1.0,
        0.0,
        0.0,
        0.0,
        0.0,
        0.0,
        1.0
      ],
      "name": "bde96bf7436b4abd92dd8afc8a46ff12.fbx"
    },
    {
      "children": [
        3
      ],
      "name": "RootNode"
    },
    {
      "children": [
        4,
        5
      ],
      "name": "mesh"
    },
    {
      "mesh": 0,
      "name": "mesh_main_0"
    },
    {
      "mesh": 1,
      "name": "mesh_main_0"
    }
  ],
  "samplers": [
    {
      "magFilter": 9729,
      "minFilter": 9987,
      "wrapS": 10497,
      "wrapT": 10497
    }
  ],
  "scene": 0,
  "scenes": [
    {
      "name": "Sketchfab_Scene",
      "nodes": [
        0
      ]
    }
  ],
  "textures": [
    {
      "sampler": 0,
      "source": 0
    }
  ]
}
